0
SECTION
2
HEADER
9
$INSUNITS
70
4
9
$ACADVER
1
AC1014
9
$HANDSEED
5
FFFF
0
ENDSEC
0
SECTION
2
TABLES
0
TABLE
2
VPORT
5
8
100
AcDbSymbolTable
0
ENDTAB
0
TABLE
2
LTYPE
5
5
100
AcDbSymbolTable
0
LTYPE
5
14
100
AcDbSymbolTableRecord
100
AcDbLinetypeTableRecord
2
BYBLOCK
70
0
0
LTYPE
5
15
100
AcDbSymbolTableRecord
100
AcDbLinetypeTableRecord
2
BYLAYER
70
0
0
ENDTAB
0
TABLE
2
LAYER
5
2
100
AcDbSymbolTable
70
2
0
LAYER
5
50
100
AcDbSymbolTableRecord
100
AcDbLayerTableRecord
2
0
70
0
6
CONTINUOUS
0
ENDTAB
0
TABLE
2
STYLE
5
3
100
AcDbSymbolTable
70
1
0
STYLE
5
11
100
AcDbSymbolTableRecord
100
AcDbTextStyleTableRecord
2
STANDARD
70
0
0
ENDTAB
0
TABLE
2
VIEW
5
6
100
AcDbSymbolTable
70
0
0
ENDTAB
0
TABLE
2
UCS
5
7
100
AcDbSymbolTable
70
0
0
ENDTAB
0
TABLE
2
APPID
5
9
100
AcDbSymbolTable
70
2
0
APPID
5
12
100
AcDbSymbolTableRecord
100
AcDbRegAppTableRecord
2
ACAD
70
0
0
ENDTAB
0
TABLE
2
DIMSTYLE
5
A
100
AcDbSymbolTable
70
1
0
ENDTAB
0
TABLE
2
BLOCK_RECORD
5
1
100
AcDbSymbolTable
70
1
0
BLOCK_RECORD
5
1F
100
AcDbSymbolTableRecord
100
AcDbBlockTableRecord
2
*MODEL_SPACE
0
BLOCK_RECORD
5
1B
100
AcDbSymbolTableRecord
100
AcDbBlockTableRecord
2
*PAPER_SPACE
0
ENDTAB
0
ENDSEC
0
SECTION
2
BLOCKS
0
BLOCK
5
20
100
AcDbEntity
100
AcDbBlockBegin
2
*MODEL_SPACE
0
ENDBLK
5
21
100
AcDbEntity
100
AcDbBlockEnd
0
BLOCK
5
1C
100
AcDbEntity
100
AcDbBlockBegin
2
*PAPER_SPACE
0
ENDBLK
5
1D
100
AcDbEntity
100
AcDbBlockEnd
0
ENDSEC
0
SECTION
2
ENTITIES
0
LWPOLYLINE
5
100
100
AcDbEntity
8
0
100
AcDbPolyline
90
8
70
1
43
0.0
10
107.30000000000003
20
-82.699999999999989
42
0.41421356237309503
10
107.80000000000003
20
-83.200000000000003
10
127.94375000000002
20
-83.200000000000003
42
0.41421356237309503
10
128.44375000000002
20
-82.699999999999989
10
128.44375000000002
20
-69.699999999999989
42
0.41421356237309503
10
127.94375000000002
20
-69.199999999999989
10
107.80000000000003
20
-69.199999999999989
42
0.41421356237309503
10
107.30000000000003
20
-69.699999999999989
0
LWPOLYLINE
5
101
100
AcDbEntity
8
0
100
AcDbPolyline
90
8
70
1
43
0.0
10
-6.7374999999999847
20
-12.549999999999999
10
-6.7374999999999847
20
-25.550000000000001
42
0.41421356237309503
10
-6.2374999999999847
20
-26.050000000000004
10
-5.7374999999999856
20
-26.050000000000001
42
0.41421356237309503
10
-5.2374999999999865
20
-25.550000000000001
10
-5.2374999999999865
20
-12.549999999999999
42
0.41421356237309503
10
-5.7374999999999856
20
-12.050000000000001
10
-6.2374999999999847
20
-12.050000000000001
42
0.41421356237309503
0
LWPOLYLINE
5
102
100
AcDbEntity
8
0
100
AcDbPolyline
90
8
70
1
43
0.0
10
260.20000000000005
20
-50.149999999999999
42
0.41421356237309503
10
259.70000000000005
20
-50.649999999999991
10
259.70000000000005
20
-63.649999999999991
42
0.41421356237309503
10
260.20000000000005
20
-64.149999999999991
10
273.20000000000005
20
-64.149999999999991
42
0.41421356237309503
10
273.7000000000001
20
-63.649999999999991
10
273.7000000000001
20
-50.649999999999991
42
0.41421356237309503
10
273.20000000000005
20
-50.149999999999999
0
LWPOLYLINE
5
103
100
AcDbEntity
8
0
100
AcDbPolyline
90
8
70
1
43
0.0
10
131.61250000000001
20
-50.149999999999999
10
144.61250000000001
20
-50.149999999999991
42
-0.41421356237309503
10
145.11250000000001
20
-50.649999999999991
10
145.11250000000001
20
-63.649999999999991
42
-0.41421356237309503
10
144.61250000000001
20
-64.149999999999991
10
131.61250000000001
20
-64.150000000000006
42
-0.41421356237309503
10
131.11250000000001
20
-63.649999999999991
10
131.11250000000001
20
-50.649999999999991
42
-0.41421356237309503
0
LWPOLYLINE
5
104
100
AcDbEntity
8
0
100
AcDbPolyline
90
24
70
1
43
0.0
10
241.15000000000006
20
-6.9999999999999973
10
241.48700000000005
20
-6.9999999999999822
42
-0.41421356237313017
10
241.73700000000002
20
-7.2499999999999973
10
241.73700000000002
20
-8.4999999999999982
42
0.41421356237309503
10
242.23700000000005
20
-9
10
248.23700000000005
20
-9
42
0.41421356237309503
10
248.73700000000002
20
-8.4999999999999982
10
248.73700000000002
20
-7.2499999999999973
42
-0.41421356237325502
10
248.98700000000002
20
-7.0000000000000178
10
265.36300000000006
20
-6.999999999999984
42
-0.41421356237313017
10
265.61300000000006
20
-7.25
10
265.61300000000006
20
-8.4999999999999982
42
0.41421356237309503
10
266.11300000000006
20
-9
10
272.113
20
-9
42
0.41421356237309503
10
272.613
20
-8.4999999999999982
10
272.613
20
-7.25
42
-0.41421356237325502
10
272.863
20
-7.0000000000000195
10
273.20000000000005
20
-7
42
0.41421356237309503
10
273.7000000000001
20
-6.4999999999999991
10
273.7000000000001
20
6.5000000000000018
42
0.41421356237309503
10
273.20000000000005
20
7.0000000000000018
10
241.15000000000006
20
7.0000000000000018
42
0.41421356237309503
10
240.65000000000003
20
6.5000000000000018
10
240.65000000000003
20
-6.4999999999999991
42
0.41421356237309503
0
LWPOLYLINE
5
105
100
AcDbEntity
8
0
100
AcDbPolyline
90
8
70
1
43
0.0
10
67.943750000000009
20
-81.700000000000017
42
0.41421356237309503
10
68.443750000000009
20
-82.199999999999989
10
74.443750000000009
20
-82.199999999999989
42
0.41421356237309503
10
74.943750000000023
20
-81.700000000000017
10
74.943750000000023
20
-67.699999999999989
42
0.41421356237309503
10
74.443750000000009
20
-67.199999999999989
10
68.443750000000009
20
-67.200000000000003
42
0.41421356237309503
10
67.943750000000009
20
-67.699999999999989
0
LWPOLYLINE
5
106
100
AcDbEntity
8
0
100
AcDbPolyline
90
8
70
1
43
0.0
10
140.35000000000002
20
6.5000000000000018
10
140.35000000000002
20
-6.4999999999999991
42
-0.41421356237309503
10
139.85000000000002
20
-7
10
126.85000000000002
20
-7.0000000000000062
42
-0.41421356237309503
10
126.35000000000002
20
-6.4999999999999991
10
126.35000000000002
20
6.5000000000000018
42
-0.41421356237309503
10
126.85000000000002
20
7.0000000000000018
10
139.85000000000002
20
7.0000000000000089
42
-0.41421356237309503
0
LWPOLYLINE
5
107
100
AcDbEntity
8
0
100
AcDbPolyline
90
8
70
1
43
0.0
10
292.25
20
-26.050000000000004
42
0.41421356237309503
10
292.75
20
-25.550000000000001
10
292.75
20
-12.549999999999999
42
0.41421356237309503
10
292.25
20
-12.050000000000001
10
279.25
20
-12.050000000000001
42
0.41421356237309503
10
278.75000000000006
20
-12.549999999999999
10
278.75000000000006
20
-25.550000000000001
42
0.41421356237309503
10
279.25
20
-26.050000000000004
0
LWPOLYLINE
5
108
100
AcDbEntity
8
0
100
AcDbPolyline
90
8
70
1
43
0.0
10
44.600000000000016
20
-6.9999999999999973
42
0.41421356237309503
10
45.100000000000016
20
-6.4999999999999991
10
45.100000000000016
20
6.5000000000000018
42
0.41421356237309503
10
44.600000000000016
20
7.0000000000000018
10
31.600000000000009
20
7.0000000000000018
42
0.41421356237309503
10
31.100000000000012
20
6.5000000000000018
10
31.100000000000012
20
-6.4999999999999991
42
0.41421356237309503
10
31.600000000000009
20
-6.9999999999999973
0
LWPOLYLINE
5
109
100
AcDbEntity
8
0
100
AcDbPolyline
90
8
70
1
43
0.0
10
79.99375000000002
20
-82.699999999999989
42
0.41421356237310542
10
80.493750000000006
20
-83.200000000000003
10
101.75
20
-83.200000000000003
42
0.41421356237309503
10
102.25000000000001
20
-82.699999999999989
10
102.25000000000001
20
-69.699999999999989
42
0.41421356237310542
10
101.75
20
-69.199999999999989
10
80.493750000000006
20
-69.199999999999989
42
0.41421356237311063
10
79.993750000000006
20
-69.699999999999989
0
LWPOLYLINE
5
110
100
AcDbEntity
8
0
100
AcDbPolyline
90
8
70
1
43
0.0
10
213.83750000000006
20
-69.699999999999989
10
213.83750000000006
20
-82.699999999999989
42
-0.41421356237309503
10
213.33750000000006
20
-83.200000000000003
10
212.83750000000003
20
-83.200000000000003
42
-0.41421356237309503
10
212.33750000000003
20
-82.699999999999989
10
212.33750000000003
20
-69.699999999999989
42
-0.41421356237309503
10
212.83750000000003
20
-69.199999999999989
10
213.33750000000006
20
-69.199999999999989
42
-0.41421356237309503
0
LWPOLYLINE
5
111
100
AcDbEntity
8
0
100
AcDbPolyline
90
8
70
1
43
0.0
10
251.00625000000005
20
-50.149999999999999
10
251.50625000000005
20
-50.149999999999991
42
-0.41421356237309503
10
252.00625000000005
20
-50.649999999999991
10
252.00625000000005
20
-63.649999999999991
42
-0.41421356237309503
10
251.50625000000005
20
-64.149999999999991
10
251.00625000000005
20
-64.150000000000006
42
-0.41421356237309503
10
250.50625000000002
20
-63.649999999999991
10
250.50625000000002
20
-50.649999999999991
42
-0.41421356237309503
0
LWPOLYLINE
5
112
100
AcDbEntity
8
0
100
AcDbPolyline
90
8
70
1
43
0.0
10
136.37500000000003
20
-26.050000000000004
10
149.37500000000003
20
-26.050000000000004
42
0.41421356237309503
10
149.87500000000003
20
-25.550000000000001
10
149.87500000000003
20
-12.549999999999999
42
0.41421356237309503
10
149.37500000000003
20
-12.050000000000001
10
136.37500000000003
20
-12.050000000000001
42
0.41421356237309503
10
135.87500000000003
20
-12.549999999999999
10
135.87500000000003
20
-25.550000000000001
42
0.41421356237309503
0
LWPOLYLINE
5
113
100
AcDbEntity
8
0
100
AcDbPolyline
90
8
70
1
43
0.0
10
83.987500000000011
20
-45.099999999999994
10
96.987500000000026
20
-45.099999999999994
42
0.41421356237309503
10
97.487500000000026
20
-44.600000000000001
10
97.487500000000026
20
-31.599999999999998
42
0.41421356237309503
10
96.987500000000026
20
-31.099999999999998
10
83.987500000000011
20
-31.099999999999998
42
0.41421356237309503
10
83.487500000000011
20
-31.599999999999998
10
83.487500000000011
20
-44.600000000000001
42
0.41421356237309503
0
LWPOLYLINE
5
114
100
AcDbEntity
8
0
100
AcDbPolyline
90
8
70
1
43
0.0
10
58.88750000000001
20
-45.099999999999994
42
0.41421356237309503
10
59.387500000000003
20
-44.600000000000001
10
59.387500000000003
20
-31.599999999999998
42
0.41421356237309503
10
58.88750000000001
20
-31.099999999999998
10
45.887500000000017
20
-31.099999999999998
42
0.41421356237309503
10
45.387500000000017
20
-31.599999999999998
10
45.387500000000017
20
-44.600000000000001
42
0.41421356237309503
10
45.887500000000017
20
-45.099999999999994
0
LWPOLYLINE
5
115
100
AcDbEntity
8
0
100
AcDbPolyline
90
8
70
1
43
0.0
10
235.33750000000003
20
-69.699999999999989
10
235.33750000000003
20
-82.699999999999989
42
-0.41421356237309503
10
234.83750000000003
20
-83.200000000000003
10
234.33750000000006
20
-83.200000000000003
42
-0.41421356237309503
10
233.83750000000006
20
-82.699999999999989
10
233.83750000000006
20
-69.699999999999989
42
-0.41421356237309503
10
234.33750000000006
20
-69.199999999999989
10
234.83750000000003
20
-69.199999999999989
42
-0.41421356237309503
0
LWPOLYLINE
5
116
100
AcDbEntity
8
0
100
AcDbPolyline
90
8
70
1
43
0.0
10
230.83750000000006
20
-69.699999999999989
42
0.41421356237309503
10
230.33750000000003
20
-69.199999999999989
10
217.33750000000003
20
-69.199999999999989
42
0.41421356237309503
10
216.83750000000006
20
-69.699999999999989
10
216.83750000000006
20
-82.699999999999989
42
0.41421356237309503
10
217.33750000000003
20
-83.200000000000003
10
230.33750000000003
20
-83.200000000000003
42
0.41421356237309503
10
230.83750000000006
20
-82.699999999999989
0
LWPOLYLINE
5
117
100
AcDbEntity
8
0
100
AcDbPolyline
90
8
70
1
43
0.0
10
154.92500000000004
20
-25.550000000000001
42
0.41421356237309503
10
155.42500000000004
20
-26.050000000000004
10
168.42500000000001
20
-26.050000000000004
42
0.41421356237309503
10
168.92500000000001
20
-25.550000000000001
10
168.92500000000001
20
-12.549999999999999
42
0.41421356237309503
10
168.42500000000001
20
-12.050000000000001
10
155.42500000000004
20
-12.050000000000001
42
0.41421356237309503
10
154.92500000000004
20
-12.549999999999999
0
LWPOLYLINE
5
118
100
AcDbEntity
8
0
100
AcDbPolyline
90
8
70
1
43
0.0
10
-2.2374999999999856
20
-12.549999999999999
10
-2.2374999999999856
20
-25.550000000000001
42
0.41421356237309503
10
-1.7374999999999852
20
-26.050000000000004
10
11.262500000000017
20
-26.050000000000004
42
0.41421356237309503
10
11.762500000000015
20
-25.550000000000001
10
11.762500000000015
20
-12.549999999999999
42
0.41421356237309503
10
11.262500000000017
20
-12.050000000000001
10
-1.7374999999999852
20
-12.050000000000001
42
0.41421356237309503
0
LWPOLYLINE
5
119
100
AcDbEntity
8
0
100
AcDbPolyline
90
8
70
1
43
0.0
10
202.26250000000005
20
-50.649999999999991
42
0.41421356237309503
10
201.76250000000005
20
-50.149999999999999
10
188.76250000000002
20
-50.149999999999999
42
0.41421356237309503
10
188.26250000000005
20
-50.649999999999991
10
188.26250000000005
20
-63.649999999999991
42
0.41421356237309503
10
188.76250000000002
20
-64.149999999999991
10
201.76250000000005
20
-64.149999999999991
42
0.41421356237309503
10
202.26250000000005
20
-63.649999999999991
0
LWPOLYLINE
5
120
100
AcDbEntity
8
0
100
AcDbPolyline
90
8
70
1
43
0.0
10
107.01250000000002
20
-50.649999999999991
10
107.01250000000002
20
-63.649999999999991
42
-0.41421356237309503
10
106.51250000000002
20
-64.149999999999991
10
93.512500000000017
20
-64.150000000000006
42
-0.41421356237309503
10
93.012500000000017
20
-63.649999999999991
10
93.012500000000031
20
-50.649999999999991
42
-0.41421356237309503
10
93.512500000000017
20
-50.149999999999999
10
106.51250000000002
20
-50.149999999999991
42
-0.41421356237309503
0
LWPOLYLINE
5
121
100
AcDbEntity
8
0
100
AcDbPolyline
90
8
70
1
43
0.0
10
17.643750000000011
20
-31.099999999999998
10
18.143750000000018
20
-31.099999999999998
42
-0.41421356237309503
10
18.643750000000018
20
-31.599999999999998
10
18.643750000000018
20
-44.600000000000001
42
-0.41421356237309503
10
18.143750000000018
20
-45.099999999999994
10
17.643750000000011
20
-45.099999999999994
42
-0.41421356237309503
10
17.143750000000011
20
-44.600000000000001
10
17.143750000000011
20
-31.599999999999998
42
-0.41421356237309503
0
LWPOLYLINE
5
122
100
AcDbEntity
8
0
100
AcDbPolyline
90
8
70
1
43
0.0
10
159.68750000000003
20
-44.600000000000001
42
0.41421356237309503
10
160.18750000000006
20
-45.099999999999994
10
173.18750000000006
20
-45.099999999999994
42
0.41421356237309503
10
173.68750000000006
20
-44.600000000000001
10
173.68750000000006
20
-31.599999999999998
42
0.41421356237309503
10
173.18750000000006
20
-31.099999999999998
10
160.18750000000006
20
-31.099999999999998
42
0.41421356237309503
10
159.68750000000003
20
-31.599999999999998
0
LWPOLYLINE
5
123
100
AcDbEntity
8
0
100
AcDbPolyline
90
8
70
1
43
0.0
10
197.78750000000005
20
-44.600000000000001
42
0.41421356237309503
10
198.28750000000002
20
-45.099999999999994
10
211.28750000000002
20
-45.099999999999994
42
0.41421356237309503
10
211.78750000000005
20
-44.600000000000001
10
211.78750000000005
20
-31.599999999999998
42
0.41421356237309503
10
211.28750000000002
20
-31.099999999999998
10
198.28750000000002
20
-31.099999999999998
42
0.41421356237309503
10
197.78750000000002
20
-31.599999999999998
0
LWPOLYLINE
5
124
100
AcDbEntity
8
0
100
AcDbPolyline
90
24
70
1
43
0.0
10
263.23175000000003
20
-46.600000000000001
42
0.41421356237309503
10
263.73175000000009
20
-47.100000000000001
10
269.73175000000003
20
-47.100000000000001
42
0.41421356237309503
10
270.23175000000003
20
-46.600000000000001
10
270.23175000000003
20
-32.600000000000001
42
0.41421356237309503
10
269.73175000000003
20
-32.100000000000001
10
262.04375000000005
20
-32.100000000000023
42
-0.41421356237313145
10
261.79375000000005
20
-31.850000000000005
10
261.79375000000005
20
-31.599999999999998
42
0.41421356237309503
10
261.29375000000005
20
-31.099999999999998
10
248.29375000000005
20
-31.099999999999998
42
0.41421356237309503
10
247.79375000000005
20
-31.599999999999998
10
247.79375000000005
20
-31.850000000000005
42
-0.41421356237325629
10
247.54375000000007
20
-32.099999999999987
10
239.85575000000006
20
-32.100000000000001
42
0.41421356237309503
10
239.35575000000003
20
-32.600000000000001
10
239.35575000000003
20
-46.600000000000001
42
0.41421356237309503
10
239.85575000000006
20
-47.100000000000001
10
245.85575000000006
20
-47.100000000000001
42
0.41421356237309503
10
246.35575000000006
20
-46.600000000000001
10
246.35575000000006
20
-45.350000000000001
42
-0.41421356237326151
10
246.60575000000006
20
-45.100000000000016
10
262.98175000000009
20
-45.09999999999998
42
-0.41421356237313667
10
263.23175000000003
20
-45.350000000000001
0
LWPOLYLINE
5
125
100
AcDbEntity
8
0
100
AcDbPolyline
90
8
70
1
43
0.0
10
112.06250000000003
20
-63.649999999999991
42
0.41421356237309503
10
112.56250000000003
20
-64.149999999999991
10
125.56250000000003
20
-64.149999999999991
42
0.41421356237309503
10
126.06250000000003
20
-63.649999999999991
10
126.06250000000003
20
-50.649999999999991
42
0.41421356237309503
10
125.56250000000003
20
-50.149999999999999
10
112.56250000000003
20
-50.149999999999999
42
0.41421356237309503
10
112.06250000000003
20
-50.649999999999991
0
LWPOLYLINE
5
126
100
AcDbEntity
8
0
100
AcDbPolyline
90
8
70
1
43
0.0
10
64.150000000000006
20
6.5000000000000018
10
64.150000000000006
20
-6.4999999999999991
42
-0.41421356237309503
10
63.650000000000013
20
-6.9999999999999973
10
50.650000000000013
20
-6.9999999999999973
42
-0.41421356237309503
10
50.150000000000013
20
-6.4999999999999991
10
50.150000000000013
20
6.5000000000000018
42
-0.41421356237309503
10
50.650000000000013
20
7.0000000000000018
10
63.650000000000013
20
7
42
-0.41421356237309503
0
LWPOLYLINE
5
127
100
AcDbEntity
8
0
100
AcDbPolyline
90
8
70
1
43
0.0
10
205.26250000000005
20
-69.699999999999989
10
205.26250000000005
20
-82.699999999999989
42
0.41421356237309503
10
205.76250000000005
20
-83.200000000000003
10
206.26250000000002
20
-83.200000000000003
42
0.41421356237309503
10
206.76250000000005
20
-82.699999999999989
10
206.76250000000005
20
-69.699999999999989
42
0.41421356237309503
10
206.26250000000002
20
-69.199999999999989
10
205.76250000000005
20
-69.199999999999989
42
0.41421356237309503
0
LWPOLYLINE
5
128
100
AcDbEntity
8
0
100
AcDbPolyline
90
8
70
1
43
0.0
10
26.837500000000016
20
-31.099999999999998
42
0.41421356237309503
10
26.337500000000009
20
-31.599999999999998
10
26.337500000000009
20
-44.600000000000001
42
0.41421356237309503
10
26.837500000000016
20
-45.099999999999994
10
39.837500000000013
20
-45.099999999999994
42
0.41421356237309503
10
40.337500000000013
20
-44.600000000000001
10
40.337500000000013
20
-31.599999999999998
42
0.41421356237309503
10
39.837500000000013
20
-31.099999999999998
0
LWPOLYLINE
5
129
100
AcDbEntity
8
0
100
AcDbPolyline
90
8
70
1
43
0.0
10
184.76250000000005
20
-83.200000000000003
42
0.41421356237309503
10
185.26250000000005
20
-82.699999999999989
10
185.26250000000005
20
-69.699999999999989
42
0.41421356237309503
10
184.76250000000005
20
-69.199999999999989
10
184.26250000000005
20
-69.199999999999989
42
0.41421356237309503
10
183.76250000000002
20
-69.699999999999989
10
183.76250000000002
20
-82.699999999999989
42
0.41421356237309503
10
184.26250000000005
20
-83.200000000000003
0
LWPOLYLINE
5
130
100
AcDbEntity
8
0
100
AcDbPolyline
90
8
70
1
43
0.0
10
36.362500000000011
20
-50.149999999999999
42
0.41421356237309503
10
35.862500000000011
20
-50.649999999999991
10
35.862500000000011
20
-63.649999999999991
42
0.41421356237309503
10
36.362500000000011
20
-64.149999999999991
10
49.362500000000018
20
-64.149999999999991
42
0.41421356237309503
10
49.862500000000018
20
-63.649999999999991
10
49.862500000000018
20
-50.649999999999991
42
0.41421356237309503
10
49.362500000000018
20
-50.149999999999999
0
LWPOLYLINE
5
131
100
AcDbEntity
8
0
100
AcDbPolyline
90
8
70
1
43
0.0
10
164.16250000000005
20
-50.649999999999991
42
0.41421356237309503
10
163.66250000000005
20
-50.149999999999999
10
150.66250000000002
20
-50.149999999999999
42
0.41421356237309503
10
150.16250000000002
20
-50.649999999999991
10
150.16250000000002
20
-63.649999999999991
42
0.41421356237309503
10
150.66250000000002
20
-64.149999999999991
10
163.66250000000005
20
-64.149999999999991
42
0.41421356237309503
10
164.16250000000005
20
-63.649999999999991
0
LWPOLYLINE
5
132
100
AcDbEntity
8
0
100
AcDbPolyline
90
8
70
1
43
0.0
10
22.075000000000014
20
-26.050000000000001
10
35.07500000000001
20
-26.050000000000004
42
0.41421356237309503
10
35.575000000000017
20
-25.550000000000001
10
35.575000000000017
20
-12.549999999999999
42
0.41421356237309503
10
35.07500000000001
20
-12.050000000000001
10
22.075000000000014
20
-12.050000000000001
42
0.41421356237309503
10
21.575000000000017
20
-12.549999999999999
10
21.575000000000017
20
-25.550000000000001
42
0.41421356237309503
0
LWPOLYLINE
5
133
100
AcDbEntity
8
0
100
AcDbPolyline
90
8
70
1
43
0.0
10
55.412500000000016
20
-50.149999999999999
42
0.41421356237309503
10
54.912500000000016
20
-50.649999999999991
10
54.912500000000016
20
-63.649999999999991
42
0.41421356237309503
10
55.412500000000016
20
-64.149999999999991
10
68.412500000000009
20
-64.149999999999991
42
0.41421356237309503
10
68.912500000000009
20
-63.649999999999991
10
68.912500000000009
20
-50.649999999999991
42
0.41421356237309503
10
68.412500000000009
20
-50.149999999999999
0
LWPOLYLINE
5
134
100
AcDbEntity
8
0
100
AcDbPolyline
90
8
70
1
43
0.0
10
41.125000000000014
20
-26.050000000000004
10
54.125000000000014
20
-26.050000000000004
42
0.41421356237309503
10
54.625000000000021
20
-25.550000000000001
10
54.625000000000014
20
-12.549999999999999
42
0.41421356237309503
10
54.125000000000014
20
-12.050000000000001
10
41.125000000000014
20
-12.050000000000001
42
0.41421356237309503
10
40.625000000000014
20
-12.549999999999999
10
40.625000000000014
20
-25.550000000000001
42
0.41421356237309503
0
LWPOLYLINE
5
135
100
AcDbEntity
8
0
100
AcDbPolyline
90
8
70
1
43
0.0
10
168.45000000000002
20
-67.200000000000003
42
0.41421356237309503
10
167.95000000000002
20
-67.699999999999989
10
167.95000000000002
20
-81.700000000000017
42
0.41421356237309503
10
168.45000000000002
20
-82.199999999999989
10
174.45000000000005
20
-82.199999999999989
42
0.41421356237309503
10
174.95000000000005
20
-81.700000000000017
10
174.95000000000005
20
-67.699999999999989
42
0.41421356237309503
10
174.45000000000005
20
-67.200000000000003
0
LWPOLYLINE
5
136
100
AcDbEntity
8
0
100
AcDbPolyline
90
8
70
1
43
0.0
10
247.50625000000002
20
-50.649999999999991
42
0.41421356237309503
10
247.00625000000005
20
-50.149999999999999
10
234.00625000000005
20
-50.149999999999999
42
0.41421356237309503
10
233.50625000000005
20
-50.649999999999991
10
233.50625000000005
20
-63.649999999999991
42
0.41421356237309503
10
234.00625000000005
20
-64.149999999999991
10
247.00625000000005
20
-64.149999999999991
42
0.41421356237309503
10
247.50625000000002
20
-63.649999999999991
0
LWPOLYLINE
5
137
100
AcDbEntity
8
0
100
AcDbPolyline
90
8
70
1
43
0.0
10
279.25
20
-31.099999999999998
10
292.25
20
-31.099999999999991
42
-0.41421356237309503
10
292.75
20
-31.599999999999998
10
292.75
20
-44.600000000000001
42
-0.41421356237309503
10
292.25
20
-45.099999999999994
10
279.25
20
-45.100000000000009
42
-0.41421356237309503
10
278.75
20
-44.600000000000001
10
278.75
20
-31.599999999999998
42
-0.41421356237309503
0
LWPOLYLINE
5
138
100
AcDbEntity
8
0
100
AcDbPolyline
90
8
70
1
43
0.0
10
216.55000000000004
20
6.5000000000000018
10
216.55000000000004
20
-6.4999999999999991
42
-0.41421356237309503
10
216.05000000000004
20
-7
10
203.05000000000004
20
-7.0000000000000062
42
-0.41421356237309503
10
202.55000000000001
20
-6.4999999999999991
10
202.55000000000001
20
6.5000000000000018
42
-0.41421356237309503
10
203.05000000000004
20
7.0000000000000018
10
216.05000000000004
20
7.0000000000000089
42
-0.41421356237309503
0
LWPOLYLINE
5
139
100
AcDbEntity
8
0
100
AcDbPolyline
90
8
70
1
43
0.0
10
272.4375
20
-12.050000000000001
42
0.41421356237309503
10
271.9375
20
-12.549999999999999
10
271.9375
20
-25.550000000000001
42
0.41421356237309503
10
272.4375
20
-26.050000000000004
10
272.9375
20
-26.050000000000001
42
0.41421356237309503
10
273.43750000000006
20
-25.550000000000001
10
273.43750000000006
20
-12.549999999999999
42
0.41421356237309503
10
272.9375
20
-12.050000000000001
0
LWPOLYLINE
5
140
100
AcDbEntity
8
0
100
AcDbPolyline
90
8
70
1
43
0.0
10
222.10000000000005
20
7.0000000000000018
10
235.10000000000005
20
7.0000000000000089
42
-0.41421356237309503
10
235.60000000000005
20
6.5000000000000018
10
235.60000000000005
20
-6.4999999999999991
42
-0.41421356237309503
10
235.10000000000005
20
-6.9999999999999973
10
222.10000000000005
20
-7.0000000000000062
42
-0.41421356237309503
10
221.60000000000002
20
-6.4999999999999991
10
221.60000000000002
20
6.5000000000000018
42
-0.41421356237309503
0
LWPOLYLINE
5
141
100
AcDbEntity
8
0
100
AcDbPolyline
90
8
70
1
43
0.0
10
220.81250000000006
20
-64.149999999999991
42
0.41421356237309503
10
221.31250000000006
20
-63.649999999999991
10
221.31250000000006
20
-50.649999999999991
42
0.41421356237309503
10
220.81250000000006
20
-50.149999999999999
10
207.81250000000003
20
-50.149999999999999
42
0.41421356237309503
10
207.31250000000006
20
-50.649999999999991
10
207.31250000000003
20
-63.649999999999991
42
0.41421356237309503
10
207.81250000000003
20
-64.149999999999991
0
LWPOLYLINE
5
142
100
AcDbEntity
8
0
100
AcDbPolyline
90
8
70
1
43
0.0
10
179.23750000000001
20
-31.099999999999998
10
192.23750000000001
20
-31.099999999999991
42
-0.41421356237309503
10
192.73750000000004
20
-31.599999999999998
10
192.73750000000004
20
-44.600000000000001
42
-0.41421356237309503
10
192.23750000000001
20
-45.099999999999994
10
179.23750000000001
20
-45.100000000000009
42
-0.41421356237309503
10
178.73750000000001
20
-44.600000000000001
10
178.73750000000001
20
-31.599999999999998
42
-0.41421356237309503
0
LWPOLYLINE
5
143
100
AcDbEntity
8
0
100
AcDbPolyline
90
8
70
1
43
0.0
10
251.9375
20
-12.549999999999999
42
0.41421356237309503
10
251.4375
20
-12.050000000000001
10
250.93750000000003
20
-12.050000000000001
42
0.41421356237309503
10
250.43750000000003
20
-12.549999999999999
10
250.43750000000003
20
-25.550000000000001
42
0.41421356237309503
10
250.93750000000003
20
-26.050000000000001
10
251.4375
20
-26.050000000000004
42
0.41421356237309503
10
251.9375
20
-25.550000000000001
0
LWPOLYLINE
5
144
100
AcDbEntity
8
0
100
AcDbPolyline
90
8
70
1
43
0.0
10
169.21250000000003
20
-50.649999999999991
10
169.21250000000003
20
-63.649999999999991
42
0.41421356237309503
10
169.71250000000003
20
-64.149999999999991
10
182.71250000000006
20
-64.149999999999991
42
0.41421356237309503
10
183.21250000000006
20
-63.649999999999991
10
183.21250000000006
20
-50.649999999999991
42
0.41421356237309503
10
182.71250000000006
20
-50.149999999999999
10
169.71250000000003
20
-50.149999999999999
42
0.41421356237309503
0
LWPOLYLINE
5
145
100
AcDbEntity
8
0
100
AcDbPolyline
90
8
70
1
43
0.0
10
15.762500000000017
20
-26.050000000000004
42
0.41421356237309503
10
16.262500000000017
20
-25.550000000000001
10
16.262500000000017
20
-12.549999999999999
42
0.41421356237309503
10
15.762500000000017
20
-12.050000000000001
10
15.262500000000019
20
-12.050000000000001
42
0.41421356237309503
10
14.762500000000021
20
-12.549999999999999
10
14.762500000000021
20
-25.550000000000001
42
0.41421356237309503
10
15.262500000000019
20
-26.050000000000004
0
LWPOLYLINE
5
146
100
AcDbEntity
8
0
100
AcDbPolyline
90
8
70
1
43
0.0
10
87.46250000000002
20
-64.149999999999991
42
0.41421356237309503
10
87.96250000000002
20
-63.649999999999991
10
87.96250000000002
20
-50.649999999999991
42
0.41421356237309503
10
87.46250000000002
20
-50.149999999999999
10
74.462500000000006
20
-50.149999999999999
42
0.41421356237309503
10
73.96250000000002
20
-50.649999999999991
10
73.962500000000006
20
-63.649999999999991
42
0.41421356237309503
10
74.462500000000006
20
-64.149999999999991
0
LWPOLYLINE
5
147
100
AcDbEntity
8
0
100
AcDbPolyline
90
8
70
1
43
0.0
10
201.76250000000005
20
-83.200000000000003
42
0.41421356237309503
10
202.26250000000005
20
-82.699999999999989
10
202.26250000000005
20
-69.699999999999989
42
0.41421356237309503
10
201.76250000000005
20
-69.199999999999989
10
188.76250000000002
20
-69.199999999999989
42
0.41421356237309503
10
188.26250000000005
20
-69.699999999999989
10
188.26250000000005
20
-82.699999999999989
42
0.41421356237309503
10
188.76250000000002
20
-83.200000000000003
0
LWPOLYLINE
5
148
100
AcDbEntity
8
0
100
AcDbPolyline
90
8
70
1
43
0.0
10
230.83750000000006
20
-31.599999999999998
42
0.41421356237309503
10
230.33750000000003
20
-31.099999999999998
10
217.33750000000003
20
-31.099999999999998
42
0.41421356237309503
10
216.83750000000006
20
-31.599999999999998
10
216.83750000000006
20
-44.600000000000001
42
0.41421356237309503
10
217.33750000000003
20
-45.099999999999994
10
230.33750000000003
20
-45.099999999999994
42
0.41421356237309503
10
230.83750000000006
20
-44.600000000000001
0
LWPOLYLINE
5
149
100
AcDbEntity
8
0
100
AcDbPolyline
90
8
70
1
43
0.0
10
187.97500000000008
20
-12.549999999999999
10
187.97500000000008
20
-25.550000000000001
42
-0.41421356237309503
10
187.47500000000005
20
-26.050000000000004
10
174.47500000000005
20
-26.050000000000008
42
-0.41421356237309503
10
173.97500000000005
20
-25.550000000000001
10
173.97500000000005
20
-12.549999999999999
42
-0.41421356237309503
10
174.47500000000005
20
-12.050000000000001
10
187.47500000000005
20
-12.049999999999992
42
-0.41421356237309503
0
LWPOLYLINE
5
150
100
AcDbEntity
8
0
100
AcDbPolyline
90
8
70
1
43
0.0
10
225.57500000000005
20
-26.050000000000004
42
0.41421356237309503
10
226.07500000000005
20
-25.550000000000001
10
226.07500000000005
20
-12.549999999999999
42
0.41421356237309503
10
225.57500000000005
20
-12.050000000000001
10
212.57500000000005
20
-12.050000000000001
42
0.41421356237309503
10
212.07500000000005
20
-12.549999999999999
10
212.07500000000005
20
-25.550000000000001
42
0.41421356237309503
10
212.57500000000005
20
-26.050000000000004
0
CIRCLE
5
151
100
AcDbEntity
8
0
100
AcDbCircle
10
292.35222234349357
20
12.429408953984559
30
0
40
1.5999999999999659
210
0
220
0
230
1
0
LWPOLYLINE
5
152
100
AcDbEntity
8
0
100
AcDbPolyline
90
8
70
1
43
0.0
10
292.75
20
6.5000000000000018
10
292.75
20
-6.4999999999999991
42
-0.41421356237309503
10
292.25
20
-7
10
279.25
20
-7.0000000000000062
42
-0.41421356237309503
10
278.75
20
-6.4999999999999991
10
278.75
20
6.5000000000000018
42
-0.41421356237309503
10
279.25
20
7.0000000000000018
10
292.25
20
7.0000000000000089
42
-0.41421356237309503
0
LWPOLYLINE
5
153
100
AcDbEntity
8
0
100
AcDbPolyline
90
8
70
1
43
0.0
10
279.25
20
-50.149999999999999
10
292.25
20
-50.149999999999991
42
-0.41421356237309503
10
292.75
20
-50.649999999999991
10
292.75
20
-63.649999999999991
42
-0.41421356237309503
10
292.25
20
-64.149999999999991
10
279.25
20
-64.149999999999963
42
-0.41421356237309503
10
278.75000000000006
20
-63.649999999999991
10
278.75
20
-50.649999999999991
42
-0.41421356237309503
0
LWPOLYLINE
5
154
100
AcDbEntity
8
0
100
AcDbPolyline
90
8
70
1
43
0.0
10
231.12500000000006
20
-12.549999999999999
10
231.12500000000006
20
-25.550000000000001
42
0.41421356237309503
10
231.62500000000006
20
-26.050000000000004
10
244.62500000000006
20
-26.050000000000004
42
0.41421356237309503
10
245.12500000000006
20
-25.550000000000001
10
245.12500000000006
20
-12.549999999999999
42
0.41421356237309503
10
244.62500000000006
20
-12.050000000000001
10
231.62500000000006
20
-12.050000000000001
42
0.41421356237309503
0
LWPOLYLINE
5
155
100
AcDbEntity
8
0
100
AcDbPolyline
90
8
70
1
43
0.0
10
145.40000000000003
20
6.5000000000000018
10
145.40000000000003
20
-6.4999999999999991
42
0.41421356237309503
10
145.90000000000003
20
-7
10
158.90000000000003
20
-6.9999999999999973
42
0.41421356237309503
10
159.40000000000003
20
-6.4999999999999991
10
159.40000000000003
20
6.5000000000000018
42
0.41421356237309503
10
158.90000000000003
20
7.0000000000000018
10
145.90000000000003
20
7.0000000000000018
42
0.41421356237309503
0
LWPOLYLINE
5
156
100
AcDbEntity
8
0
100
AcDbPolyline
90
8
70
1
43
0.0
10
116.03750000000002
20
-45.099999999999994
42
0.41421356237309503
10
116.53750000000002
20
-44.600000000000001
10
116.53750000000002
20
-31.599999999999998
42
0.41421356237309503
10
116.03750000000002
20
-31.099999999999998
10
103.03750000000002
20
-31.099999999999998
42
0.41421356237309503
10
102.53750000000002
20
-31.599999999999998
10
102.53750000000002
20
-44.600000000000001
42
0.41421356237309503
10
103.03750000000002
20
-45.099999999999994
0
LWPOLYLINE
5
157
100
AcDbEntity
8
0
100
AcDbPolyline
90
8
70
1
43
0.0
10
141.13750000000002
20
-31.099999999999998
10
154.13750000000005
20
-31.099999999999991
42
-0.41421356237309503
10
154.63750000000005
20
-31.599999999999998
10
154.63750000000005
20
-44.600000000000001
42
-0.41421356237309503
10
154.13750000000005
20
-45.099999999999994
10
141.13750000000002
20
-45.100000000000009
42
-0.41421356237309503
10
140.63750000000002
20
-44.600000000000001
10
140.63750000000002
20
-31.599999999999998
42
-0.41421356237309503
0
LWPOLYLINE
5
158
100
AcDbEntity
8
0
100
AcDbPolyline
90
8
70
1
43
0.0
10
-4.1187499999999924
20
-31.099999999999998
42
0.41421356237309503
10
-4.6187499999999915
20
-31.599999999999998
10
-4.6187499999999915
20
-44.600000000000001
42
0.41421356237309503
10
-4.1187499999999924
20
-45.099999999999994
10
13.643750000000017
20
-45.099999999999994
42
0.41421356237309503
10
14.143750000000015
20
-44.600000000000001
10
14.143750000000015
20
-31.599999999999998
42
0.41421356237309503
10
13.643750000000017
20
-31.099999999999998
0
LWPOLYLINE
5
159
100
AcDbEntity
8
0
100
AcDbPolyline
90
8
70
1
43
0.0
10
121.58750000000003
20
-44.600000000000001
42
0.41421356237309503
10
122.08750000000003
20
-45.099999999999994
10
135.08750000000003
20
-45.099999999999994
42
0.41421356237309503
10
135.58750000000003
20
-44.600000000000001
10
135.58750000000003
20
-31.599999999999998
42
0.41421356237309503
10
135.08750000000003
20
-31.099999999999998
10
122.08750000000003
20
-31.099999999999998
42
0.41421356237309503
10
121.58750000000003
20
-31.599999999999998
0
LWPOLYLINE
5
160
100
AcDbEntity
8
0
100
AcDbPolyline
90
8
70
1
43
0.0
10
19.693750000000012
20
-69.199999999999989
10
39.837500000000013
20
-69.199999999999989
42
-0.41421356237309503
10
40.337500000000013
20
-69.699999999999989
10
40.33750000000002
20
-82.699999999999989
42
-0.41421356237309503
10
39.837500000000013
20
-83.200000000000003
10
19.693750000000012
20
-83.200000000000003
42
-0.41421356237309503
10
19.193750000000016
20
-82.699999999999989
10
19.193750000000016
20
-69.699999999999989
42
-0.41421356237309503
0
LWPOLYLINE
5
161
100
AcDbEntity
8
0
100
AcDbPolyline
90
8
70
1
43
0.0
10
193.52500000000006
20
-12.050000000000001
42
0.41421356237309503
10
193.02500000000006
20
-12.549999999999999
10
193.02500000000006
20
-25.550000000000001
42
0.41421356237309503
10
193.52500000000006
20
-26.050000000000004
10
206.52500000000006
20
-26.050000000000001
42
0.41421356237309503
10
207.02500000000009
20
-25.550000000000001
10
207.02500000000003
20
-12.549999999999999
42
0.41421356237309503
10
206.52500000000006
20
-12.050000000000001
0
LWPOLYLINE
5
162
100
AcDbEntity
8
0
100
AcDbPolyline
90
8
70
1
43
0.0
10
162.89375000000004
20
-69.700000000002035
42
0.414213562373069
10
162.39375000000007
20
-69.200000000002035
10
133.99375000000009
20
-69.200000000000031
42
0.41421356237313145
10
133.49375000000003
20
-69.700000000000017
10
133.49375000000003
20
-82.699999999999989
42
0.41421356237307422
10
133.99375000000003
20
-83.200000000000003
10
162.39375000000001
20
-83.200000000000017
42
0.41421356237310542
10
162.89375000000004
20
-82.699999999999989
0
LWPOLYLINE
5
163
100
AcDbEntity
8
0
100
AcDbPolyline
90
8
70
1
43
0.0
10
268.9375
20
-12.549999999999999
42
0.41421356237309503
10
268.43750000000006
20
-12.050000000000001
10
255.43750000000003
20
-12.050000000000001
42
0.41421356237309503
10
254.93750000000003
20
-12.549999999999999
10
254.93750000000003
20
-25.550000000000001
42
0.41421356237309503
10
255.43750000000003
20
-26.050000000000004
10
268.43750000000006
20
-26.050000000000004
42
0.41421356237309503
10
268.93750000000006
20
-25.550000000000001
0
CIRCLE
5
164
100
AcDbEntity
8
0
100
AcDbCircle
10
142.85222297792316
20
12.429396155517569
30
0
40
1.5999999999999921
210
0
220
0
230
1
0
LWPOLYLINE
5
165
100
AcDbEntity
8
0
100
AcDbPolyline
90
8
70
1
43
0.0
10
82.700000000000017
20
-6.9999999999999973
42
0.41421356237309503
10
83.200000000000003
20
-6.4999999999999991
10
83.200000000000003
20
6.5000000000000018
42
0.41421356237309503
10
82.700000000000017
20
7.0000000000000018
10
69.700000000000003
20
7.0000000000000018
42
0.41421356237309503
10
69.200000000000003
20
6.5000000000000018
10
69.200000000000003
20
-6.4999999999999991
42
0.41421356237309503
10
69.700000000000003
20
-6.9999999999999973
0
LWPOLYLINE
5
166
100
AcDbEntity
8
0
100
AcDbPolyline
90
8
70
1
43
0.0
10
92.225000000000023
20
-26.050000000000001
42
0.41421356237309503
10
92.725000000000023
20
-25.550000000000001
10
92.725000000000023
20
-12.549999999999999
42
0.41421356237309503
10
92.225000000000023
20
-12.050000000000001
10
79.225000000000009
20
-12.050000000000001
42
0.41421356237309503
10
78.725000000000023
20
-12.549999999999999
10
78.725000000000009
20
-25.550000000000001
42
0.41421356237309503
10
79.225000000000009
20
-26.050000000000001
0
LWPOLYLINE
5
167
100
AcDbEntity
8
0
100
AcDbPolyline
90
8
70
1
43
0.0
10
73.675000000000011
20
-12.549999999999999
42
0.41421356237309503
10
73.175000000000026
20
-12.050000000000001
10
60.175000000000018
20
-12.050000000000001
42
0.41421356237309503
10
59.675000000000018
20
-12.549999999999999
10
59.675000000000018
20
-25.550000000000001
42
0.41421356237309503
10
60.175000000000018
20
-26.050000000000004
10
73.175000000000026
20
-26.050000000000001
42
0.41421356237309503
10
73.67500000000004
20
-25.550000000000001
0
LWPOLYLINE
5
168
100
AcDbEntity
8
0
100
AcDbPolyline
90
8
70
1
43
0.0
10
111.77500000000002
20
-12.549999999999999
10
111.77500000000002
20
-25.550000000000001
42
-0.41421356237309503
10
111.27500000000001
20
-26.050000000000004
10
98.27500000000002
20
-26.050000000000008
42
-0.41421356237309503
10
97.77500000000002
20
-25.550000000000001
10
97.775000000000034
20
-12.549999999999999
42
-0.41421356237309503
10
98.27500000000002
20
-12.050000000000001
10
111.27500000000001
20
-12.049999999999992
42
-0.41421356237309503
0
LWPOLYLINE
5
169
100
AcDbEntity
8
0
100
AcDbPolyline
90
8
70
1
43
0.0
10
116.82500000000002
20
-25.550000000000001
42
0.41421356237309503
10
117.32500000000002
20
-26.050000000000004
10
130.32500000000002
20
-26.050000000000001
42
0.41421356237309503
10
130.82500000000002
20
-25.550000000000001
10
130.82500000000002
20
-12.549999999999999
42
0.41421356237309503
10
130.32500000000002
20
-12.050000000000001
10
117.32500000000002
20
-12.050000000000001
42
0.41421356237309503
10
116.82500000000002
20
-12.549999999999999
0
LWPOLYLINE
5
170
100
AcDbEntity
8
0
100
AcDbPolyline
90
8
70
1
43
0.0
10
78.437500000000028
20
-31.599999999999998
10
78.437500000000028
20
-44.600000000000001
42
-0.41421356237309503
10
77.937500000000028
20
-45.099999999999994
10
64.937500000000028
20
-45.099999999999994
42
-0.41421356237309503
10
64.437500000000028
20
-44.600000000000001
10
64.437500000000028
20
-31.599999999999998
42
-0.41421356237309503
10
64.937500000000028
20
-31.099999999999998
10
77.937500000000028
20
-31.099999999999991
42
-0.41421356237309503
0
LWPOLYLINE
5
171
100
AcDbEntity
8
0
100
AcDbPolyline
90
8
70
1
43
0.0
10
184.00000000000006
20
7.0000000000000018
10
197.00000000000006
20
6.9999999999999734
42
-0.41421356237309503
10
197.50000000000003
20
6.5000000000000018
10
197.50000000000006
20
-6.4999999999999991
42
-0.41421356237309503
10
197.00000000000006
20
-6.9999999999999973
10
184.00000000000006
20
-7.0000000000000062
42
-0.41421356237309503
10
183.50000000000006
20
-6.4999999999999991
10
183.50000000000006
20
6.5000000000000018
42
-0.41421356237309503
0
CIRCLE
5
172
100
AcDbEntity
8
0
100
AcDbCircle
10
68.102224249739891
20
12.429390453923254
30
0
40
1.5999999999999943
210
0
220
0
230
1
0
LWPOLYLINE
5
173
100
AcDbEntity
8
0
100
AcDbPolyline
90
8
70
1
43
0.0
10
101.75000000000003
20
-7
42
0.41421356237309503
10
102.25000000000003
20
-6.4999999999999991
10
102.25000000000003
20
6.5000000000000018
42
0.41421356237309503
10
101.75000000000003
20
7.0000000000000018
10
88.750000000000014
20
7.0000000000000018
42
0.41421356237309503
10
88.250000000000028
20
6.5000000000000018
10
88.250000000000028
20
-6.4999999999999991
42
0.41421356237309503
10
88.750000000000014
20
-7
0
LWPOLYLINE
5
174
100
AcDbEntity
8
0
100
AcDbPolyline
90
8
70
1
43
0.0
10
107.30000000000003
20
-6.4999999999999991
42
0.41421356237309503
10
107.80000000000003
20
-7
10
120.8
20
-7
42
0.41421356237309503
10
121.30000000000001
20
-6.4999999999999991
10
121.30000000000001
20
6.5000000000000018
42
0.41421356237309503
10
120.8
20
7.0000000000000018
10
107.80000000000003
20
7.0000000000000018
42
0.41421356237309503
10
107.30000000000003
20
6.5000000000000018
0
LWPOLYLINE
5
175
100
AcDbEntity
8
0
100
AcDbPolyline
90
8
70
1
43
0.0
10
230.50625000000002
20
-50.649999999999991
10
230.50625000000002
20
-63.649999999999991
42
-0.41421356237309503
10
230.00625000000002
20
-64.149999999999991
10
229.50625000000005
20
-64.150000000000006
42
-0.41421356237309503
10
229.00625000000005
20
-63.649999999999991
10
229.00625000000005
20
-50.649999999999991
42
-0.41421356237309503
10
229.50625000000005
20
-50.149999999999999
10
230.00625000000002
20
-50.149999999999991
42
-0.41421356237309503
0
LWPOLYLINE
5
176
100
AcDbEntity
8
0
100
AcDbPolyline
90
8
70
1
43
0.0
10
164.95000000000005
20
7.0000000000000018
10
177.95000000000002
20
7.0000000000000089
42
-0.41421356237309503
10
178.45000000000002
20
6.5000000000000018
10
178.45000000000002
20
-6.4999999999999991
42
-0.41421356237309503
10
177.95000000000002
20
-7
10
164.95000000000005
20
-7.0000000000000062
42
-0.41421356237309503
10
164.45000000000005
20
-6.4999999999999991
10
164.45000000000005
20
6.5000000000000018
42
-0.41421356237309503
0
LWPOLYLINE
5
177
100
AcDbEntity
8
0
100
AcDbPolyline
90
24
70
1
43
0.0
10
20.844250000000013
20
-66.149999999999991
10
26.844250000000017
20
-66.149999999999991
42
0.41421356237309503
10
27.344250000000017
20
-65.649999999999991
10
27.344250000000017
20
-51.649999999999991
42
0.41421356237309503
10
26.844250000000017
20
-51.149999999999991
10
19.156250000000007
20
-51.149999999999991
42
-0.414213562373069
10
18.906250000000007
20
-50.899999999999991
10
18.906250000000007
20
-50.649999999999991
42
0.41421356237309503
10
18.406250000000011
20
-50.149999999999999
10
5.4062500000000142
20
-50.149999999999999
42
0.41421356237309503
10
4.906250000000016
20
-50.649999999999991
10
4.9062500000000151
20
-50.899999999999991
42
-0.41421356237306839
10
4.656250000000016
20
-51.149999999999991
10
-3.0317499999999855
20
-51.149999999999991
42
0.41421356237309503
10
-3.5317499999999855
20
-51.649999999999991
10
-3.5317499999999855
20
-65.649999999999991
42
0.41421356237309503
10
-3.0317499999999855
20
-66.149999999999991
10
2.9682500000000145
20
-66.149999999999991
42
0.41421356237309503
10
3.4682500000000149
20
-65.649999999999991
10
3.4682500000000167
20
-64.399999999999991
42
-0.41421356237308915
10
3.7182500000000154
20
-64.149999999999991
10
20.094250000000017
20
-64.149999999999991
42
-0.41421356237308982
10
20.344250000000017
20
-64.399999999999991
10
20.344250000000017
20
-65.649999999999991
42
0.41421356237309503
0
LWPOLYLINE
5
178
100
AcDbEntity
8
0
100
AcDbPolyline
90
8
70
1
43
0.0
10
12.550000000000015
20
7.0000000000000018
10
25.550000000000015
20
7.0000000000000089
42
-0.41421356237309503
10
26.050000000000022
20
6.5000000000000018
10
26.050000000000011
20
-6.4999999999999991
42
-0.41421356237309503
10
25.550000000000015
20
-7
10
12.550000000000015
20
-6.9999999999999973
42
-0.41421356237309503
10
12.050000000000017
20
-6.4999999999999991
10
12.050000000000015
20
6.5000000000000018
42
-0.41421356237309503
0
CIRCLE
5
179
100
AcDbEntity
8
0
100
AcDbCircle
10
217.6022225534154
20
12.429402513222529
30
0
40
1.5999999999999943
210
0
220
0
230
1
0
CIRCLE
5
180
100
AcDbEntity
8
0
100
AcDbCircle
10
217.60522284781413
20
-88.562956991890687
30
0
40
1.6000000000000092
210
0
220
0
230
1
0
LWPOLYLINE
5
181
100
AcDbEntity
8
0
100
AcDbPolyline
90
16
70
1
43
0.0
10
57.006250000000016
20
-82.450000000000031
10
57.006250000000023
20
-82.699999999999989
42
-0.41421356237309503
10
56.506250000000016
20
-83.200000000000003
10
43.506250000000016
20
-83.200000000000003
42
-0.41421356237309503
10
43.006250000000023
20
-82.699999999999989
10
43.006250000000023
20
-69.699999999999989
42
-0.41421356237309503
10
43.506250000000016
20
-69.199999999999989
10
53.400000000000006
20
-69.199999999999989
42
0.4142135623730534
10
53.650000000000013
20
-68.949999999999989
10
53.650000000000006
20
-67.699999999999989
42
-0.41421356237309503
10
54.150000000000006
20
-67.199999999999989
10
60.150000000000013
20
-67.200000000000003
42
-0.41421356237309503
10
60.650000000000013
20
-67.699999999999989
10
60.65000000000002
20
-81.700000000000017
42
-0.41421356237309503
10
60.150000000000013
20
-82.200000000000017
10
57.256250000000016
20
-82.200000000000017
42
0.41421356237309503
0
LWPOLYLINE
5
182
100
AcDbEntity
8
0
100
AcDbPolyline
90
8
70
1
43
0.0
10
241.15000000000006
20
-69.199999999999989
42
0.41421356237309503
10
240.65000000000003
20
-69.699999999999989
10
240.65000000000003
20
-82.699999999999989
42
0.41421356237309503
10
241.15000000000006
20
-83.200000000000003
10
254.15000000000006
20
-83.200000000000003
42
0.41421356237309503
10
254.65000000000006
20
-82.699999999999989
10
254.65000000000006
20
-69.699999999999989
42
0.41421356237309503
10
254.15000000000006
20
-69.199999999999989
0
CIRCLE
5
183
100
AcDbEntity
8
0
100
AcDbCircle
10
68.105344827978371
20
-88.568065663454433
30
0
40
1.6000000000000092
210
0
220
0
230
1
0
LWPOLYLINE
5
184
100
AcDbEntity
8
0
100
AcDbPolyline
90
8
70
1
43
0.0
10
279.25
20
-83.200000000000003
10
292.25
20
-83.200000000000003
42
0.41421356237309503
10
292.75
20
-82.699999999999989
10
292.75
20
-69.699999999999989
42
0.41421356237309503
10
292.25
20
-69.199999999999989
10
279.25
20
-69.199999999999989
42
0.41421356237309503
10
278.75000000000006
20
-69.699999999999989
10
278.75000000000006
20
-82.699999999999989
42
0.41421356237309503
0
LWPOLYLINE
5
185
100
AcDbEntity
8
0
100
AcDbPolyline
90
8
70
1
43
0.0
10
14.762500000000021
20
-69.699999999999989
10
14.762500000000021
20
-82.699999999999989
42
0.41421356237309503
10
15.262500000000019
20
-83.200000000000003
10
15.762500000000017
20
-83.200000000000003
42
0.41421356237309503
10
16.262500000000017
20
-82.699999999999989
10
16.262500000000017
20
-69.699999999999989
42
0.41421356237309503
10
15.762500000000017
20
-69.199999999999989
10
15.262500000000019
20
-69.199999999999989
42
0.41421356237309503
0
LWPOLYLINE
5
186
100
AcDbEntity
8
0
100
AcDbPolyline
90
8
70
1
43
0.0
10
11.262500000000017
20
-83.200000000000003
42
0.41421356237309503
10
11.762500000000015
20
-82.699999999999989
10
11.762500000000015
20
-69.699999999999989
42
0.41421356237309503
10
11.262500000000021
20
-69.199999999999989
10
-4.1187499999999853
20
-69.199999999999989
42
0.41421356237309503
10
-4.6187499999999844
20
-69.699999999999989
10
-4.6187499999999844
20
-82.699999999999989
42
0.41421356237309503
10
-4.1187499999999853
20
-83.200000000000003
0
LWPOLYLINE
5
187
100
AcDbEntity
8
0
100
AcDbPolyline
90
8
70
1
43
0.0
10
-6.9999999999999858
20
-6.4999999999999991
42
0.41421356237309503
10
-6.4999999999999858
20
-6.9999999999999973
10
6.5000000000000142
20
-7
42
0.41421356237309503
10
7.0000000000000151
20
-6.4999999999999991
10
7.0000000000000151
20
6.5000000000000018
42
0.41421356237309503
10
6.5000000000000142
20
7.0000000000000018
10
-6.4999999999999858
20
7.0000000000000018
42
0.41421356237309503
10
-6.9999999999999858
20
6.5000000000000018
0
LWPOLYLINE
5
188
100
AcDbEntity
8
0
100
AcDbPolyline
90
8
70
1
43
0.0
10
273.7000000000001
20
-69.699999999999989
10
273.7000000000001
20
-82.699999999999989
42
-0.41421356237309503
10
273.20000000000005
20
-83.200000000000003
10
260.20000000000005
20
-83.200000000000003
42
-0.41421356237309503
10
259.70000000000005
20
-82.699999999999989
10
259.70000000000005
20
-69.699999999999989
42
-0.41421356237309503
10
260.20000000000005
20
-69.199999999999989
10
273.20000000000005
20
-69.199999999999989
42
-0.41421356237309503
0
CIRCLE
5
189
100
AcDbEntity
8
0
100
AcDbCircle
10
-6.6451402509750768
20
-88.570788647256165
30
0
40
1.5999999999999659
210
0
220
0
230
1
0
CIRCLE
5
190
100
AcDbEntity
8
0
100
AcDbCircle
10
292.352222805
20
-88.570595886900009
30
0
40
1.5999999999999659
210
0
220
0
230
1
0
CIRCLE
5
191
100
AcDbEntity
8
0
100
AcDbCircle
10
-6.647781293809337
20
12.429401248854655
30
0
40
1.5999999999999659
210
0
220
0
230
1
0
LWPOLYLINE
5
192
100
AcDbEntity
8
0
100
AcDbPolyline
90
134
70
1
43
0.0
10
-3.8977812938095009
20
12.429402200632584
42
1.0000000852757962
10
-9.3977812938089738
20
12.429399830916751
10
-9.397779886475222
20
9.6999659044609245
42
-0.41420578900427774
10
-9.8977663586611762
20
9.1999656468370343
10
-10.147866518692599
20
9.1999588802201497
42
0.41421356237309764
10
-10.647852990695618
20
8.6999453525891823
10
-10.645320606942921
20
-84.899203623132991
42
0.41421356237311585
10
-10.145307079311952
20
-85.399190095135992
10
-9.8951537776471614
20
-85.399183327081346
42
-0.41422148680526938
10
-9.3951402498331849
20
-85.899183326898324
10
-9.3951402498331849
20
-88.57086789616568
42
1.0000001843172015
10
-3.8951402521463221
20
-88.570708386181309
10
-3.8952182232901267
20
-85.899168716604748
42
-0.41421292850262842
10
-3.3952338985106145
20
-85.399154123927744
10
-2.8952328174097808
20
-85.399138448886319
42
-0.41421356237310186
10
-2.3952171426479536
20
-85.899122773633081
10
-2.3952093046527825
20
-86.149138448399043
42
0.41421356237310369
10
-1.8951936298909633
20
-86.649122773145791
10
63.355284603409032
20
-86.647077169669643
42
0.41421356237310542
10
63.855268928155795
20
-86.147061494907788
10
63.85526109114344
20
-85.897077170295844
42
-0.41421356237309503
10
64.355245415890209
20
-85.397061495534018
10
64.855245414907401
20
-85.397045820526529
42
-0.41421356237310542
10
65.355261089669227
20
-85.897030145273277
10
65.355344829874355
20
-88.568167780644757
42
1.0000000166600047
10
70.855344826078522
20
-88.567963442340115
10
70.855261092279392
20
-85.897030145273291
42
-0.41421356237309503
10
71.355245417026168
20
-85.397014470511451
10
71.85524541604336
20
-85.396998795503961
42
-0.41421356237309503
10
72.355261090805172
20
-85.896983120250709
10
72.35526892241198
20
-86.146795019779887
42
0.41421356237310542
10
72.855284597173821
20
-86.646779344526635
10
101.71067460479574
20
-86.645874727614967
42
0.16468870704913216
10
102.31815608546123
20
-86.440184592427926
42
-0.33855996275289207
10
108.63603054141677
20
-86.439986526968511
42
0.16468870704910515
10
109.24352491766584
20
-86.645638572644117
10
176.46374066998413
20
-86.64353121786705
42
0.16452888103287402
10
177.07072762400634
20
-86.43821906812326
42
-0.33821310723642084
10
183.38345887963828
20
-86.438021163903244
42
0.16452888103282542
10
183.99045870554534
20
-86.643295255143187
10
212.85516263644328
20
-86.642390346239893
42
0.41421356237310542
10
213.35514696119003
20
-86.142374671478009
10
213.35513912417767
20
-85.892390346776594
42
-0.4142135623730846
10
213.85512344892447
20
-85.392374672014753
10
214.35512344794162
20
-85.39235899700725
42
-0.4142135623730534
10
214.85513912270346
20
-85.892343321754012
10
214.85522284951048
20
-88.563053585907284
42
0.99999997892657599
10
220.35522284612168
20
-88.5628605105708
10
220.35513912536749
20
-85.892343321754012
42
-0.41421356237307422
10
220.85512345011426
20
-85.392327646992143
10
221.3551234162461
20
-85.392311971985691
42
-0.41421356237310542
10
221.85513909100797
20
-85.892296296732482
10
221.85514692261478
20
-86.142108196351103
42
0.41421356237313667
10
222.35516259737662
20
-86.642092521097865
10
287.60226199374733
20
-86.640047023548334
42
0.41421356237303258
10
288.10224631849411
20
-86.14003134878655
10
288.10223848049901
20
-85.890015675867517
42
-0.41422274460965502
10
288.60223848025328
20
-85.390000000859985
10
289.102222805
20
-85.390000000859985
42
-0.4142135623730846
10
289.602222805
20
-85.89000000085997
10
289.602222805
20
-88.570595886900009
42
0.99999999999999989
10
295.102222805
20
-88.570595886900009
10
295.102222805
20
-85.889999957554039
42
-0.41421353700508051
10
295.60222276169407
20
-85.389999957554039
10
295.85222687951619
20
-85.389999935900732
42
0.41421356237312623
10
296.35222683621026
20
-84.88999989259483
10
296.35221873020828
20
8.7000046598242058
42
0.41421356237313017
10
295.85221868690235
20
9.2000046165182887
10
295.60222243305316
20
9.2000045948656517
42
-0.41421358277757098
10
295.10222238974723
20
9.7000045863924367
10
295.10222234349351
20
12.429409000587295
42
0.99999998946328783
10
289.60222234349362
20
12.429408909516104
10
289.60222257989233
20
9.7000045515597382
42
-0.4142135623730846
10
289.10222262319826
20
9.2000045082538033
10
288.60222262319826
20
9.2000044649478809
42
-0.41421356237311324
10
288.10222257989233
20
9.7000044216419745
10
288.10222255823936
20
9.9500044649479129
42
0.41421356237310347
10
287.60222251493349
20
10.450004421641989
10
222.35222242365609
20
10.449998770219764
42
0.41421356237319712
10
221.85222246696202
20
9.9499987269138508
10
221.85222248861504
20
9.699998113975175
42
-0.41421358969057548
10
221.35222248528709
20
9.1999980706692543
10
220.85222253192097
20
9.1999980739971949
42
-0.41421356237307161
10
220.3522225352489
20
9.6999980773250964
10
220.3522225534154
20
12.429402494918925
42
0.99999999999999989
10
214.85222255341537
20
12.429402535356589
10
214.85222253144707
20
9.6999980299948021
42
-0.41421353464766458
10
214.35222257475294
20
9.1999980340191581
10
213.8522225274227
20
9.199997990713257
42
-0.41421356237312817
10
213.35222248411679
20
9.6999979474073399
10
213.35222246246383
20
9.9499979907132428
42
0.4142135623730866
10
212.8522224191579
20
10.449997947407326
10
183.92120285945222
20
10.449995441638652
42
0.16093453240026134
10
183.3253996975053
20
10.253125872519504
42
-0.33042710152466137
10
177.12904663592499
20
10.25312533584202
42
0.16093453240026875
10
176.53324343987566
20
10.449994801753935
10
147.60222269488639
20
10.44999229598516
42
0.41421356237311974
10
147.1022227381923
20
9.9499922526792535
10
147.10222275984532
20
9.6999915922775415
42
-0.41421360359218884
10
146.60222273278589
20
9.1999915489716209
10
146.10222280315125
20
9.1999915760310795
42
-0.41421356237309959
10
145.60222283021071
20
9.6999916030905524
10
145.60222297792316
20
12.429396006690512
42
0.99999999999999989
10
140.10222297792316
20
12.429396313067986
10
140.10222282155266
20
9.6999916030905524
42
-0.41421356237307488
10
139.60222279290713
20
9.1999916317360739
10
139.10222272095569
20
9.1999916603816239
42
-0.41421352022493335
10
138.60222274960122
20
9.6999916170756944
10
138.60222272794826
20
9.9499915164787005
42
0.41421356237308071
10
138.10222268464236
20
10.449991473172773
10
109.17119413230117
20
10.449988967403316
42
0.16093408289019218
10
108.57539237795928
20
10.253120442515694
42
-0.33042612952266687
10
102.37905395547195
20
10.253119905839455
42
0.16093408289021255
10
101.7832521670278
20
10.449988327520112
10
72.852223513711508
20
10.449985821750637
42
0.41421356237311519
10
72.352223557017439
20
9.9499857784447308
10
72.352223578670461
20
9.6999849777721217
42
-0.41421364467657479
10
71.852223481475562
20
9.1999849344662152
10
71.352223621976407
20
9.1999850316610932
42
-0.41421356237309631
10
70.852223719171334
20
9.6999851288559942
10
70.852224249739834
20
12.429389919351252
42
0.99999998946328783
10
65.352224249739947
20
12.429391022479281
10
65.352224486138795
20
9.6999851288560031
42
-0.41421356237308332
10
64.852224529444712
20
9.1999850855500878
10
64.352224529444712
20
9.1999850422441742
42
-0.41421356237310025
10
63.852224486138809
20
9.6999849989382536
10
63.852224464485843
20
9.949985042244208
42
0.41421356237309243
10
63.35222442117994
20
10.449984998938291
10
-1.8977806087290916
20
10.449979347515654
42
0.41421356237309653
10
-2.3977805654231723
20
9.9499793042097391
10
-2.3977805437702138
20
9.6999793042097409
42
-0.4142135623730947
10
-2.8977805004642936
20
9.1999792609038238
10
-3.3977805799891669
20
9.1999792175978996
42
-0.41421351578849996
10
-3.8977806232950689
20
9.6999790947671034
0
ENDSEC
0
SECTION
2
OBJECTS
0
DICTIONARY
5
C
100
AcDbDictionary
3
ACAD_GROUP
350
D
3
ACAD_MLINESTYLE
350
17
0
DICTIONARY
5
D
100
AcDbDictionary
0
DICTIONARY
5
1A
330
C
100
AcDbDictionary
0
DICTIONARY
5
17
100
AcDbDictionary
0
ENDSEC
0
EOF
